<?xml version="1.0" encoding="UTF-8" standalone="no"?>
<!DOCTYPE svg PUBLIC "-//W3C//DTD SVG 20010904//EN"
              "http://www.w3.org/TR/2001/REC-SVG-20010904/DTD/svg10.dtd">

<svg xmlns="http://www.w3.org/2000/svg"
     width="7.125in" height="2.20833in"
     viewBox="0 0 513 159">
  <path id="Selection"
        fill="#ffffff" stroke="black" stroke-width="0"
        d="M 110.00,71.00
           C 104.00,70.82 100.27,75.31 96.00,79.17
             87.79,86.59 77.37,98.28 70.40,107.00
             65.36,113.31 60.80,122.34 51.06,117.99
             43.45,114.60 52.25,106.70 55.20,103.00
             55.20,103.00 85.00,64.00 85.00,64.00
             86.58,61.92 91.64,55.07 92.48,53.00
             93.48,50.55 93.04,47.76 89.89,47.59
             86.61,47.41 76.91,54.72 74.00,56.89
             59.56,67.71 46.84,80.35 36.29,95.00
             32.13,100.78 26.00,113.42 19.00,114.33
             17.69,114.62 16.29,114.55 14.93,114.33
             5.70,111.95 11.59,104.65 14.93,100.00
             14.93,100.00 45.64,56.48 59.80,39.00
             59.80,39.00 69.84,27.09 69.84,27.09
             72.76,23.24 71.95,21.32 66.98,21.86
             54.95,23.18 30.08,30.46 18.00,34.33
             14.71,35.38 9.35,37.28 7.62,32.86
             7.18,31.75 7.18,30.32 7.62,29.22
             9.04,25.61 19.36,22.58 23.00,21.19
             37.50,15.68 58.75,9.56 74.00,7.03
             78.90,6.07 92.07,1.68 94.94,7.03
             96.42,9.98 94.53,13.46 93.21,16.00
             93.21,16.00 81.00,36.00 81.00,36.00
             89.58,34.25 100.80,24.16 110.00,20.96
             113.87,19.62 119.95,19.71 120.54,25.02
             120.90,28.19 117.39,32.44 115.67,35.00
             111.77,40.80 105.36,49.31 104.00,56.00
             110.13,54.20 112.31,50.37 117.00,46.29
             122.82,41.23 128.41,37.30 135.00,33.35
             139.23,30.81 145.41,26.48 149.57,31.16
             154.40,36.59 149.90,41.02 146.00,45.00
             134.46,56.76 126.22,67.48 118.37,82.00
             116.83,84.85 109.90,96.65 112.70,99.27
             115.30,101.70 123.69,94.91 126.00,93.28
             126.00,93.28 148.00,75.83 148.00,75.83
             150.90,73.21 156.54,66.79 160.00,65.84
             163.28,64.95 167.15,67.32 165.83,71.02
             165.83,71.02 153.20,86.00 153.20,86.00
             151.19,88.51 145.36,94.32 147.73,97.67
             148.50,98.75 149.72,99.23 151.02,99.13
             153.79,98.91 159.72,93.64 162.00,91.75
             162.00,91.75 186.20,70.35 186.20,70.35
             188.66,68.00 194.11,61.88 197.09,61.07
             202.07,59.72 208.04,64.52 211.00,68.00
             208.58,68.03 206.24,67.89 204.00,69.02
             200.33,70.88 191.27,82.25 188.48,86.00
             187.23,87.67 182.02,94.18 183.87,96.01
             184.93,97.31 186.92,96.37 188.01,96.01
             188.01,96.01 199.00,88.34 199.00,88.34
             199.00,88.34 228.00,67.63 228.00,67.63
             228.00,67.63 244.00,56.14 244.00,56.14
             247.81,54.48 251.36,55.45 251.77,60.02
             252.08,63.60 249.10,73.39 247.65,76.99
             247.18,78.59 244.89,82.85 247.65,83.79
             250.12,84.72 257.78,78.88 260.00,77.25
             269.05,70.59 287.00,53.71 292.00,44.00
             289.01,43.61 286.03,42.97 283.00,43.23
             280.93,43.19 277.09,44.15 275.32,43.23
             272.17,41.98 273.39,37.14 277.11,35.60
             279.67,34.54 293.12,35.39 297.83,33.41
             302.57,31.41 308.79,19.56 314.04,17.80
             316.64,16.63 319.43,17.38 322.00,17.80
             322.00,17.80 315.00,34.00 315.00,34.00
             315.00,34.00 332.00,33.00 332.00,33.00
             335.75,46.69 322.73,43.98 314.00,44.00
             303.13,44.02 302.80,47.66 296.35,56.00
             296.35,56.00 280.29,78.00 280.29,78.00
             276.86,82.82 271.94,87.81 272.00,94.00
             290.51,88.71 316.09,59.34 333.00,53.85
             341.78,51.00 345.57,55.77 350.00,58.01
             353.12,59.60 357.79,59.97 356.34,65.00
             355.50,67.95 351.27,71.62 349.18,74.00
             345.61,78.07 342.30,82.71 341.00,88.00
             350.04,85.55 368.24,68.31 376.00,61.58
             378.97,59.00 384.62,52.31 388.04,51.68
             391.79,50.98 393.83,53.69 397.00,54.07
             398.74,54.28 400.32,53.65 402.00,53.37
             406.91,52.54 420.42,52.78 418.92,60.84
             418.56,62.80 413.89,67.94 412.44,70.00
             408.93,74.98 406.99,79.30 405.00,85.00
             405.00,85.00 406.00,86.00 406.00,86.00
             415.19,81.89 429.30,71.41 437.00,64.71
             447.02,56.00 450.13,49.41 465.00,50.02
             472.39,50.32 471.95,53.46 475.45,56.27
             478.28,58.53 481.89,58.10 483.63,62.06
             485.20,65.65 482.54,68.40 480.40,71.00
             480.40,71.00 463.29,90.00 463.29,90.00
             456.23,98.20 457.66,100.98 468.00,101.00
             468.00,101.00 497.86,100.59 500.26,103.43
             503.30,107.01 501.96,116.28 496.94,117.53
             494.27,118.20 488.05,116.44 485.00,115.92
             485.00,115.92 459.00,112.58 459.00,112.58
             454.99,112.05 446.70,111.22 443.17,113.17
             441.16,114.29 435.94,120.03 434.04,121.99
             434.04,121.99 415.25,142.09 415.25,142.09
             412.05,145.64 407.11,152.52 402.00,152.75
             397.56,152.94 393.90,148.85 391.00,146.00
             384.20,139.29 378.47,133.43 372.42,126.00
             369.93,122.93 365.71,118.36 368.26,114.14
             370.80,109.95 385.99,108.74 391.00,107.92
             391.00,107.92 422.00,104.09 422.00,104.09
             425.22,103.85 437.75,103.14 439.91,101.98
             442.80,100.42 447.05,94.76 449.00,92.00
             441.98,90.87 438.92,93.50 434.02,92.84
             427.92,92.02 428.86,86.61 424.87,86.23
             418.60,85.63 400.18,102.89 396.51,88.00
             396.28,86.26 396.16,84.78 396.51,83.00
             396.84,78.06 399.65,73.72 401.00,69.00
             391.62,72.47 383.84,80.90 377.04,88.00
             374.49,90.66 370.43,96.79 366.07,95.34
             360.90,93.58 365.32,87.02 366.07,82.00
             358.65,86.67 346.98,98.92 338.00,97.77
             333.01,97.14 330.89,93.88 328.72,93.20
             326.11,92.39 323.30,94.45 321.00,95.51
             316.68,97.51 308.61,101.26 304.00,100.88
             297.26,100.33 297.09,95.31 293.79,95.16
             291.62,95.06 287.88,98.25 286.00,99.45
             281.89,102.09 272.94,106.27 268.00,105.40
             263.93,104.68 262.45,101.70 261.76,98.00
             261.29,95.50 261.49,91.81 257.89,91.95
             255.60,92.04 249.21,95.74 247.00,97.00
             241.78,99.97 230.19,106.87 225.00,108.24
             220.36,109.46 215.26,108.77 211.00,106.56
             207.41,104.71 205.15,101.73 202.00,101.73
             199.79,101.73 196.91,103.70 195.00,104.77
             189.05,108.10 173.96,114.26 171.16,103.98
             170.97,102.66 171.02,100.41 171.16,99.00
             162.62,102.94 156.16,113.04 146.00,112.81
             142.83,112.73 139.91,111.40 137.51,109.38
             135.47,107.66 134.07,104.96 130.96,105.57
             126.09,106.51 118.49,116.97 108.00,116.97
             98.78,116.97 96.77,111.03 97.72,103.00
             99.18,90.72 103.91,81.59 110.00,71.00 Z
           M 463.88,60.08
           C 455.99,60.28 447.17,69.36 442.17,75.00
             440.55,76.83 434.61,83.57 440.15,84.58
             442.67,85.04 445.90,83.20 448.00,81.98
             452.39,79.44 460.46,73.54 463.88,69.91
             467.16,66.30 469.38,62.70 463.88,60.08 Z
           M 334.00,64.45
           C 325.09,66.88 316.21,74.07 310.30,81.00
             308.56,83.04 301.13,92.87 309.05,91.99
             315.88,91.22 330.97,79.66 335.81,74.72
             339.85,70.59 342.08,64.56 334.00,64.45 Z
           M 233.89,73.73
           C 230.34,75.38 215.91,86.31 213.51,89.30
             209.94,93.76 212.36,98.67 217.02,99.67
             224.73,101.32 231.76,87.70 234.76,82.00
             236.40,78.90 239.58,73.95 233.89,73.73 Z
           M 412.00,113.12
           C 412.00,113.12 389.00,116.80 389.00,116.80
             385.90,117.44 381.26,117.70 382.45,122.05
             383.87,127.27 391.68,136.06 396.00,139.32
             397.98,140.81 400.36,142.58 403.00,142.04
             406.39,141.33 410.60,135.56 413.04,133.00
             415.51,130.40 422.97,122.83 424.45,119.96
             426.66,115.67 424.22,113.43 419.98,113.12
             419.98,113.12 412.00,113.12 412.00,113.12 Z
           M 50.67,120.00M 432.50,36.00"/>
</svg>
